<?xml version="1.0" encoding="UTF-8" standalone="no"?>
<!-- Created with Inkscape (http://www.inkscape.org/) -->

<svg
   width="500"
   height="75"
   viewBox="0 0 132.29166 19.84375"
   version="1.1"
   id="svg13824"
   xmlns="http://www.w3.org/2000/svg"
   xmlns:svg="http://www.w3.org/2000/svg">
  <defs
     id="defs13821">
    <clipPath
       clipPathUnits="userSpaceOnUse"
       id="clipPath7314">
      <g
         id="g7318"
         transform="translate(-407.1821,-465.9912)">
        <path
           d="M 0,0 H 2000 V 2000 H 0 Z"
           id="path7316" />
      </g>
    </clipPath>
    <clipPath
       clipPathUnits="userSpaceOnUse"
       id="clipPath7308">
      <g
         id="g7312"
         transform="translate(-378.7397,-388.7187)">
        <path
           d="M 0,0 H 2000 V 2000 H 0 Z"
           id="path7310" />
      </g>
    </clipPath>
    <clipPath
       clipPathUnits="userSpaceOnUse"
       id="clipPath1299">
      <g
         id="g1303"
         transform="translate(-460.4678,-451.8174)">
        <path
           d="M 0,2000 H 2000 V 0 H 0 Z"
           id="path1301" />
      </g>
    </clipPath>
    <clipPath
       clipPathUnits="userSpaceOnUse"
       id="clipPath1293">
      <g
         id="g1297"
         transform="translate(-638.6875,-400.6318)">
        <path
           d="M 0,2000 H 2000 V 0 H 0 Z"
           id="path1295" />
      </g>
    </clipPath>
    <clipPath
       clipPathUnits="userSpaceOnUse"
       id="clipPath1287">
      <g
         id="g1291"
         transform="translate(-781.2661,-503.0039)">
        <path
           d="M 0,2000 H 2000 V 0 H 0 Z"
           id="path1289" />
      </g>
    </clipPath>
    <clipPath
       clipPathUnits="userSpaceOnUse"
       id="clipPath1281">
      <g
         id="g1285"
         transform="translate(-809.2441,-451.8174)">
        <path
           d="M 0,2000 H 2000 V 0 H 0 Z"
           id="path1283" />
      </g>
    </clipPath>
    <clipPath
       clipPathUnits="userSpaceOnUse"
       id="clipPath1275">
      <g
         id="g1279"
         transform="translate(-978.9673,-475.6484)">
        <path
           d="M 0,2000 H 2000 V 0 H 0 Z"
           id="path1277" />
      </g>
    </clipPath>
    <clipPath
       clipPathUnits="userSpaceOnUse"
       id="clipPath1269">
      <g
         id="g1273"
         transform="translate(-1080.7197,-475.6484)">
        <path
           d="M 0,2000 H 2000 V 0 H 0 Z"
           id="path1271" />
      </g>
    </clipPath>
    <clipPath
       clipPathUnits="userSpaceOnUse"
       id="clipPath1263">
      <g
         id="g1267"
         transform="translate(-1132.1152,-411.4082)">
        <path
           d="M 0,2000 H 2000 V 0 H 0 Z"
           id="path1265" />
      </g>
    </clipPath>
    <clipPath
       clipPathUnits="userSpaceOnUse"
       id="clipPath1257">
      <g
         id="g1261"
         transform="translate(-1132.1152,-411.4082)">
        <path
           d="M 0,2000 H 2000 V 0 H 0 Z"
           id="path1259" />
      </g>
    </clipPath>
    <clipPath
       clipPathUnits="userSpaceOnUse"
       id="clipPath1251">
      <g
         id="g1255"
         transform="translate(-1339.2383,-400.6318)">
        <path
           d="M 0,2000 H 2000 V 0 H 0 Z"
           id="path1253" />
      </g>
    </clipPath>
    <clipPath
       clipPathUnits="userSpaceOnUse"
       id="clipPath1245">
      <g
         id="g1249"
         transform="translate(-1339.2383,-400.6318)">
        <path
           d="M 0,2000 H 2000 V 0 H 0 Z"
           id="path1247" />
      </g>
    </clipPath>
    <clipPath
       clipPathUnits="userSpaceOnUse"
       id="clipPath1239">
      <g
         id="g1243">
        <path
           d="M 0,2000 H 2000 V 0 H 0 Z"
           id="path1241" />
      </g>
    </clipPath>
    <clipPath
       clipPathUnits="userSpaceOnUse"
       id="clipPath1233">
      <g
         id="g1237">
        <path
           d="M 0,2000 H 2000 V 0 H 0 Z"
           id="path1235" />
      </g>
    </clipPath>
    <clipPath
       clipPathUnits="userSpaceOnUse"
       id="clipPath1227">
      <g
         id="g1231">
        <path
           d="M 0,2000 H 2000 V 0 H 0 Z"
           id="path1229" />
      </g>
    </clipPath>
    <clipPath
       clipPathUnits="userSpaceOnUse"
       id="clipPath1221">
      <g
         id="g1225"
         transform="translate(-1471.9043,-451.8174)">
        <path
           d="M 0,2000 H 2000 V 0 H 0 Z"
           id="path1223" />
      </g>
    </clipPath>
    <clipPath
       clipPathUnits="userSpaceOnUse"
       id="clipPath1215">
      <g
         id="g1219"
         transform="translate(-1471.9043,-451.8174)">
        <path
           d="M 0,2000 H 2000 V 0 H 0 Z"
           id="path1217" />
      </g>
    </clipPath>
    <clipPath
       clipPathUnits="userSpaceOnUse"
       id="clipPath1209">
      <g
         id="g1213"
         transform="translate(-1681.791,-455.9619)">
        <path
           d="M 0,2000 H 2000 V 0 H 0 Z"
           id="path1211" />
      </g>
    </clipPath>
    <clipPath
       clipPathUnits="userSpaceOnUse"
       id="clipPath1203">
      <g
         id="g1207"
         transform="translate(-1681.791,-455.9619)">
        <path
           d="M 0,2000 H 2000 V 0 H 0 Z"
           id="path1205" />
      </g>
    </clipPath>
    <clipPath
       clipPathUnits="userSpaceOnUse"
       id="clipPath1197">
      <g
         id="g1201"
         transform="translate(-1725.6182,-503.0039)">
        <path
           d="M 0,2000 H 2000 V 0 H 0 Z"
           id="path1199" />
      </g>
    </clipPath>
    <clipPath
       clipPathUnits="userSpaceOnUse"
       id="clipPath1191">
      <g
         id="g1195"
         transform="translate(-1725.6182,-503.0039)">
        <path
           d="M 0,2000 H 2000 V 0 H 0 Z"
           id="path1193" />
      </g>
    </clipPath>
  </defs>
  <g
     id="layer1">
    <g
       id="g15888"
       transform="matrix(0.89528438,0,0,0.89528438,-29.983818,-81.132608)">
      <g
         id="g76"
         transform="matrix(0.09605585,0,0,-0.09605585,45.971933,101.3222)"
         clip-path="url(#clipPath7314)">
        <path
           d="m 0,0 c 0,-7.309 -2.765,-14.614 -8.342,-20.175 -5.559,-5.56 -12.866,-8.323 -20.14,-8.323 -7.307,0 -14.612,2.763 -20.173,8.323 -11.137,11.154 -11.137,29.21 0,40.347 5.561,5.561 12.866,8.341 20.173,8.341 7.274,0 14.581,-2.78 20.14,-8.341 C -2.765,14.611 0,7.305 0,0"
           style="fill:#202435;fill-opacity:1;fill-rule:nonzero;stroke:none"
           id="path78" />
      </g>
      <g
         id="g80"
         transform="matrix(0.09605585,0,0,-0.09605585,43.239875,108.74468)"
         clip-path="url(#clipPath7308)">
        <path
           d="M 0,0 C 19.719,0 39.529,7.486 54.606,22.563 L 34.922,42.271 Z m -35.026,112.264 c 9.652,9.652 22.322,14.467 35.003,14.467 12.624,0 25.294,-4.815 34.945,-14.467 l 19.684,19.684 C 39.529,147.024 19.719,154.559 0,154.559 c -19.811,0 -39.621,-7.535 -54.699,-22.611 -30.187,-30.199 -30.187,-79.138 0,-109.385 C -39.621,7.486 -19.811,0 0,0 l -35.026,42.271 c -19.315,19.349 -19.315,50.667 0,69.993"
           style="fill:#202435;fill-opacity:1;fill-rule:nonzero;stroke:none"
           id="path82" />
      </g>
      <g
         id="g112"
         transform="matrix(0.09605585,0,0,-0.09605585,51.090337,102.68368)"
         clip-path="url(#clipPath1299)">
        <path
           d="m 0,0 c 0,-19.479 13.47,-31.085 30.255,-31.085 39.788,0 39.788,61.963 0,61.963 C 13.47,30.878 0,19.479 0,0 M 61.34,50.979 H 85.586 V -51.186 H 61.754 l -1.243,14.921 C 54.708,-48.284 38.752,-54.087 27.354,-54.294 -2.901,-54.501 -25.282,-35.851 -25.282,0 c 0,35.229 23.417,53.673 53.258,53.466 13.677,0 26.732,-6.424 32.535,-16.578 z"
           style="fill:#202435;fill-opacity:1;fill-rule:nonzero;stroke:none"
           id="path114" />
      </g>
      <g
         id="g116"
         transform="matrix(0.09605585,0,0,-0.09605585,68.209382,107.60036)"
         clip-path="url(#clipPath1293)">
        <path
           d="m 0,0 v 53.466 c 0,15.541 -8.497,27.353 -24.661,27.353 -15.542,0 -26.11,-13.054 -26.11,-28.597 V 0 h -25.075 v 102.372 h 22.588 L -51.6,88.487 c 10.361,10.155 20.723,15.335 33.571,15.335 24.039,0 43.311,-18.029 43.311,-50.149 L 25.282,0 Z"
           style="fill:#202435;fill-opacity:1;fill-rule:nonzero;stroke:none"
           id="path118" />
      </g>
      <g
         id="g120"
         transform="matrix(0.09605585,0,0,-0.09605585,81.904891,97.766919)"
         clip-path="url(#clipPath1287)">
        <path
           d="M 0,0 -43.518,-102.787 H -70.873 L -114.598,0 h 27.561 l 14.092,-33.779 15.75,-43.104 15.542,42.69 L -27.562,0 Z"
           style="fill:#202435;fill-opacity:1;fill-rule:nonzero;stroke:none"
           id="path122" />
      </g>
      <g
         id="g124"
         transform="matrix(0.09605585,0,0,-0.09605585,84.592342,102.68368)"
         clip-path="url(#clipPath1281)">
        <path
           d="m 0,0 c 0,-19.479 13.47,-31.085 30.255,-31.085 39.788,0 39.788,61.963 0,61.963 C 13.47,30.878 0,19.479 0,0 M 61.34,50.979 H 85.586 V -51.186 H 61.754 l -1.243,14.921 C 54.708,-48.284 38.752,-54.087 27.354,-54.294 -2.901,-54.501 -25.282,-35.851 -25.282,0 c 0,35.229 23.417,53.673 53.258,53.466 13.677,0 26.732,-6.424 32.535,-16.578 z"
           style="fill:#202435;fill-opacity:1;fill-rule:nonzero;stroke:none"
           id="path126" />
      </g>
      <g
         id="g128"
         transform="matrix(0.09605585,0,0,-0.09605585,100.89525,100.39457)"
         clip-path="url(#clipPath1275)">
        <path
           d="m 0,0 c -7.253,6.839 -15.542,9.119 -25.282,9.119 -12.019,0 -18.651,-3.73 -18.651,-10.154 0,-6.632 6.01,-10.361 19.065,-11.192 19.273,-1.242 43.726,-5.594 43.726,-32.742 0,-18.028 -14.713,-33.57 -43.933,-33.57 -16.164,0 -32.327,2.693 -47.248,18.236 l 12.434,18.029 c 7.253,-8.082 23.831,-14.091 35.229,-14.299 9.532,-0.207 18.443,4.766 18.443,12.226 0,7.046 -5.802,9.948 -20.308,10.777 -19.273,1.45 -42.275,8.496 -42.275,31.705 0,23.625 24.453,31.914 43.104,31.914 15.956,0 27.976,-3.109 39.788,-13.47 z"
           style="fill:#202435;fill-opacity:1;fill-rule:nonzero;stroke:none"
           id="path130" />
      </g>
      <g
         id="g132"
         transform="matrix(0.09605585,0,0,-0.09605585,110.66916,100.39457)"
         clip-path="url(#clipPath1269)">
        <path
           d="m 0,0 c -7.253,6.839 -15.542,9.119 -25.282,9.119 -12.02,0 -18.651,-3.73 -18.651,-10.154 0,-6.632 6.01,-10.361 19.066,-11.192 19.272,-1.242 43.725,-5.594 43.725,-32.742 0,-18.028 -14.713,-33.57 -43.932,-33.57 -16.165,0 -32.328,2.693 -47.249,18.236 l 12.433,18.029 c 7.254,-8.082 23.832,-14.091 35.23,-14.299 9.532,-0.207 18.443,4.766 18.443,12.226 0,7.046 -5.803,9.948 -20.308,10.777 -19.273,1.45 -42.275,8.496 -42.275,31.705 0,23.625 24.453,31.914 43.104,31.914 15.956,0 27.975,-3.109 39.788,-13.47 z"
           style="fill:#202435;fill-opacity:1;fill-rule:nonzero;stroke:none"
           id="path134" />
      </g>
      <g
         id="g136"
         transform="matrix(0.09605585,0,0,-0.09605585,115.606,106.56522)"
         clip-path="url(#clipPath1263)">
        <path
           d="M 0,0 H 48.284 C 66.521,0 89.938,4.352 89.938,27.354 89.73,49.941 69.215,58.023 49.735,58.023 H 0 Z m 0,68.593 h 49.735 c 17.408,0 35.644,5.387 35.644,26.11 0,21.138 -19.066,30.049 -37.095,30.049 H 0 Z m 96.947,26.11 c 0,-14.92 -9.118,-26.525 -23.624,-31.084 18.237,-4.973 28.598,-19.687 28.598,-36.473 0,-29.84 -27.769,-37.922 -52.637,-37.922 H -10.19 v 145.06 h 59.474 c 24.453,0 47.663,-12.018 47.663,-39.581"
           style="fill:#202435;fill-opacity:1;fill-rule:nonzero;stroke:none"
           id="path138" />
      </g>
      <g
         id="g140"
         transform="matrix(0.09605585,0,0,-0.09605585,115.606,106.56522)"
         clip-path="url(#clipPath1257)">
        <path
           d="M 0,0 H 48.284 C 66.521,0 89.938,4.352 89.938,27.354 89.73,49.941 69.215,58.023 49.735,58.023 H 0 Z m 0,68.593 h 49.735 c 17.408,0 35.644,5.387 35.644,26.11 0,21.138 -19.066,30.049 -37.095,30.049 H 0 Z m 96.947,26.11 c 0,-14.92 -9.118,-26.525 -23.624,-31.084 18.237,-4.973 28.598,-19.687 28.598,-36.473 0,-29.84 -27.769,-37.922 -52.637,-37.922 H -10.19 v 145.06 h 59.474 c 24.453,0 47.663,-12.018 47.663,-39.581 z"
           style="fill:none;stroke:#202435;stroke-width:6;stroke-linecap:butt;stroke-linejoin:miter;stroke-miterlimit:4;stroke-dasharray:none;stroke-opacity:1"
           id="path142" />
      </g>
      <g
         id="g144"
         transform="matrix(0.09605585,0,0,-0.09605585,135.50139,107.60036)"
         clip-path="url(#clipPath1251)">
        <path
           d="m 0,0 v 18.443 c -7.875,-14.09 -22.174,-19.893 -36.473,-20.1 -27.354,0 -46.212,16.785 -46.212,45.176 v 59.06 H -72.53 V 43.726 c 0,-23.21 14.299,-35.644 36.472,-35.437 21.137,0.208 35.851,16.164 35.851,37.302 v 56.988 H 9.947 V 0 Z"
           style="fill:#202435;fill-opacity:1;fill-rule:nonzero;stroke:none"
           id="path146" />
      </g>
      <g
         id="g148"
         transform="matrix(0.09605585,0,0,-0.09605585,135.50139,107.60036)"
         clip-path="url(#clipPath1245)">
        <path
           d="m 0,0 v 18.443 c -7.875,-14.09 -22.174,-19.893 -36.473,-20.1 -27.354,0 -46.212,16.785 -46.212,45.176 v 59.06 H -72.53 V 43.726 c 0,-23.21 14.299,-35.644 36.472,-35.437 21.137,0.208 35.851,16.164 35.851,37.302 v 56.988 H 9.947 V 0 Z"
           style="fill:none;stroke:#202435;stroke-width:6;stroke-linecap:butt;stroke-linejoin:miter;stroke-miterlimit:4;stroke-dasharray:none;stroke-opacity:1"
           id="path150" />
      </g>
      <path
         d="m 1380.895,400.632 h 10.154 v 102.786 h -10.154 z m 13.469,135.735 c 0,-10.775 -16.371,-10.775 -16.371,0 0,10.776 16.371,10.776 16.371,0"
         style="fill:#202435;fill-opacity:1;fill-rule:nonzero;stroke:none"
         id="path152"
         clip-path="url(#clipPath1239)"
         transform="matrix(0.09605585,0,0,-0.09605585,6.8597096,146.08339)" />
      <path
         d="m 1380.895,400.632 h 10.154 v 102.786 h -10.154 z m 13.469,135.735 c 0,-10.775 -16.371,-10.775 -16.371,0 0,10.776 16.371,10.776 16.371,0 z"
         style="fill:none;stroke:#202435;stroke-width:6;stroke-linecap:butt;stroke-linejoin:miter;stroke-miterlimit:4;stroke-dasharray:none;stroke-opacity:1"
         id="path154"
         clip-path="url(#clipPath1233)"
         transform="matrix(0.09605585,0,0,-0.09605585,6.8597096,146.08339)" />
      <path
         d="m 1434.189,400.632 h -10.154 v 145.061 h 10.154 z"
         style="fill:#202435;fill-opacity:1;fill-rule:nonzero;stroke:#202435;stroke-width:6;stroke-linecap:butt;stroke-linejoin:miter;stroke-miterlimit:4;stroke-dasharray:none;stroke-opacity:1"
         id="path156"
         clip-path="url(#clipPath1227)"
         transform="matrix(0.09605585,0,0,-0.09605585,6.8597096,146.08339)" />
      <g
         id="g158"
         transform="matrix(0.09605585,0,0,-0.09605585,148.24473,102.68368)"
         clip-path="url(#clipPath1221)">
        <path
           d="m 0,0 c 0,-28.39 18.858,-42.896 41.86,-42.896 24.039,0 41.862,17.614 41.862,43.104 0,25.488 -18.237,42.896 -41.862,42.896 C 18.858,43.104 0,28.806 0,0 M 93.875,93.875 V -51.186 h -9.946 v 22.588 C 75.432,-44.14 58.646,-52.843 41.239,-52.843 12.642,-52.843 -9.946,-33.985 -9.946,0 c 0,33.778 22.795,52.844 51.392,52.844 17.615,0 34.194,-7.46 42.483,-24.038 v 65.069 z"
           style="fill:#202435;fill-opacity:1;fill-rule:nonzero;stroke:none"
           id="path160" />
      </g>
      <g
         id="g162"
         transform="matrix(0.09605585,0,0,-0.09605585,148.24473,102.68368)"
         clip-path="url(#clipPath1215)">
        <path
           d="m 0,0 c 0,-28.39 18.858,-42.896 41.86,-42.896 24.039,0 41.862,17.614 41.862,43.104 0,25.488 -18.237,42.896 -41.862,42.896 C 18.858,43.104 0,28.806 0,0 Z M 93.875,93.875 V -51.186 h -9.946 v 22.588 C 75.432,-44.14 58.646,-52.843 41.239,-52.843 12.642,-52.843 -9.946,-33.985 -9.946,0 c 0,33.778 22.795,52.844 51.392,52.844 17.615,0 34.194,-7.46 42.483,-24.038 v 65.069 z"
           style="fill:none;stroke:#202435;stroke-width:6;stroke-linecap:butt;stroke-linejoin:miter;stroke-miterlimit:4;stroke-dasharray:none;stroke-opacity:1"
           id="path164" />
      </g>
      <g
         id="g166"
         transform="matrix(0.09605585,0,0,-0.09605585,168.40558,102.28558)"
         clip-path="url(#clipPath1209)">
        <path
           d="M 0,0 C -0.207,25.282 -16.785,39.374 -41.446,39.374 -62.583,39.374 -80.819,25.075 -83.099,0 Z m -93.461,-4.145 c 0,30.67 23.21,52.844 52.015,52.844 28.805,0 54.502,-17.614 50.564,-57.61 h -92.217 c 2.073,-24.038 20.516,-37.922 41.653,-37.922 13.47,0 29.219,5.387 36.887,15.541 l 7.253,-5.802 c -9.947,-13.055 -27.768,-19.686 -44.14,-19.686 -28.805,0 -52.015,20.101 -52.015,52.635"
           style="fill:#202435;fill-opacity:1;fill-rule:nonzero;stroke:none"
           id="path168" />
      </g>
      <g
         id="g170"
         transform="matrix(0.09605585,0,0,-0.09605585,168.40558,102.28558)"
         clip-path="url(#clipPath1203)">
        <path
           d="M 0,0 C -0.207,25.282 -16.785,39.374 -41.446,39.374 -62.583,39.374 -80.819,25.075 -83.099,0 Z m -93.461,-4.145 c 0,30.67 23.21,52.844 52.015,52.844 28.805,0 54.502,-17.614 50.564,-57.61 h -92.217 c 2.073,-24.038 20.516,-37.922 41.653,-37.922 13.47,0 29.219,5.387 36.887,15.541 l 7.253,-5.802 c -9.947,-13.055 -27.768,-19.686 -44.14,-19.686 -28.805,0 -52.015,20.101 -52.015,52.635 z"
           style="fill:none;stroke:#202435;stroke-width:6;stroke-linecap:butt;stroke-linejoin:miter;stroke-miterlimit:4;stroke-dasharray:none;stroke-opacity:1"
           id="path172" />
      </g>
      <g
         id="g174"
         transform="matrix(0.09605585,0,0,-0.09605585,172.61544,97.766919)"
         clip-path="url(#clipPath1197)">
        <path
           d="m 0,0 0.414,-18.236 c 6.424,13.883 20.93,19.271 33.985,19.271 7.668,0.207 15.128,-1.865 21.967,-6.01 l -4.559,-8.289 C 46.419,-9.947 40.409,-8.497 34.399,-8.497 15.335,-8.704 0.621,-24.039 0.621,-42.689 v -59.683 H -9.533 V 0 Z"
           style="fill:#202435;fill-opacity:1;fill-rule:nonzero;stroke:none"
           id="path176" />
      </g>
      <g
         id="g178"
         transform="matrix(0.09605585,0,0,-0.09605585,172.61544,97.766919)"
         clip-path="url(#clipPath1191)">
        <path
           d="m 0,0 0.414,-18.236 c 6.424,13.883 20.93,19.271 33.985,19.271 7.668,0.207 15.128,-1.865 21.967,-6.01 l -4.559,-8.289 C 46.419,-9.947 40.409,-8.497 34.399,-8.497 15.335,-8.704 0.621,-24.039 0.621,-42.689 v -59.683 H -9.533 V 0 Z"
           style="fill:none;stroke:#202435;stroke-width:6;stroke-linecap:butt;stroke-linejoin:miter;stroke-miterlimit:4;stroke-dasharray:none;stroke-opacity:1"
           id="path180" />
      </g>
    </g>
  </g>
</svg>
